<svg width="360" height="540" viewBox="0 0 360 540" fill="none" xmlns="http://www.w3.org/2000/svg">
<g clip-path="url(#clip0_120_3776)">
<rect x="-1" width="361" height="146" fill="#FFB763"/>
<rect x="360" y="540" width="361" height="232" transform="rotate(-180 360 540)" fill="#FFB763"/>
<path d="M54 517.187L32.8125 517.187C30.9609 517.187 28.9922 517.234 26.2031 517.375L26.1328 516.883L54 507.25L54 501.203L26.1328 491.43L26.2031 490.961C28.9922 491.195 30.9609 491.242 32.8125 491.242L54 491.242L54 479.125L21.1875 479.125L21.1875 490.422L37.875 496.211C40.1953 497.008 41.7422 497.523 43.5703 498.062L43.5703 498.555C41.7422 498.977 40.1953 499.422 37.875 500.242L21.1875 505.984L21.1875 517.891L54 517.891L54 517.187ZM54.7031 457.481C54.7031 445.575 49.1719 439.692 37.7109 439.692L37.6172 439.692C26.0625 439.692 20.4844 445.575 20.4844 457.481C20.4844 469.411 26.0625 475.293 37.6172 475.293L37.7109 475.293C49.1719 475.293 54.7031 469.411 54.7031 457.481ZM54.2344 457.481C54.2344 461.254 51.5625 462.637 44.7891 462.637L30.7031 462.637C23.7187 462.637 20.9531 461.254 20.9531 457.481C20.9531 453.731 23.7187 452.348 30.7031 452.348L44.7891 452.348C51.5625 452.348 54.2344 453.731 54.2344 457.481ZM54 418.704L21.1875 408.696L21.1875 409.423L41.3906 415.563C44.5547 416.548 46.9219 417.227 49.4062 417.884L49.4062 418.352C46.9219 418.938 44.5547 419.595 41.3906 420.556L21.1875 426.696L21.1875 439.47L54 429.368L54 418.704ZM54 393.826L21.1875 393.826L21.1875 405.966L54 405.966L54 393.826ZM54 362.15L53.2969 362.15L53.2969 376.986L37.5234 376.986L37.5234 363.58L36.8203 363.58L36.8203 376.986L21.8906 376.986L21.8906 362.619L21.1875 362.619L21.1875 389.127L54 389.127L54 362.15ZM93.7031 501.719C93.7031 491.078 89.25 485.57 80.0156 484.844L79.9687 485.336C84.3047 486.414 86.3203 490.516 86.3203 496.187C86.3203 503.875 81.9375 506.687 72.0469 506.687L71.2734 506.687C63.3281 506.687 59.9531 505.164 59.9531 501.789C59.9531 498.508 63.0937 496.984 70.1016 496.984L74.4141 496.984L73.125 484.914C63.9375 485.383 59.4844 490.844 59.4844 501.719C59.4844 513.18 65.0391 518.758 76.5469 518.758L76.6406 518.758C88.1484 518.758 93.7031 513.227 93.7031 501.719ZM93 483.45L84.4922 480.801L84.4922 468.825L93 466.176L93 453.426L60.1875 463.504L60.1875 474.192L93 484.2L93 483.45ZM72.7969 477.309C69.6094 476.348 67.2422 475.645 64.7578 474.989L64.7578 474.52C67.2422 473.934 69.6094 473.278 72.7969 472.317L83.7891 469.036L83.7891 480.59L72.7969 477.309ZM93 438.556L76.6406 438.556L76.6406 436.423C76.6406 433.915 77.8594 433.212 82.1016 432.556L86.3906 431.899C90.6562 431.243 92.0859 430.938 93 430.306L93 417.392L92.2969 417.298C91.5 418.306 90.375 418.845 86.5547 419.782L82.7344 420.696C78.8906 421.634 76.9219 423.274 76.7812 433.188L76.2891 433.188C75.8672 422.36 73.6172 418.727 68.2734 418.727L68.1797 418.727C62.6719 418.727 60.1875 422.618 60.1875 431.759L60.1875 450.696L93 450.696L93 438.556ZM60.8906 438.556L60.8906 435.767C60.8906 432.321 62.5781 430.868 67.0547 430.868L69.9375 430.868C74.3672 430.868 75.9375 432.321 75.9375 435.767L75.9375 438.556L60.8906 438.556ZM93 397.716C93 386.232 87.6797 380.677 76.6406 380.677L76.5469 380.677C65.5078 380.677 60.1875 386.232 60.1875 397.716L60.1875 414.404L93 414.404L93 397.716ZM60.8906 402.263L60.8906 399.122C60.8906 394.693 63.375 393.099 70.8281 393.099L82.4531 393.099C89.8359 393.099 92.2969 394.693 92.2969 399.122L92.2969 402.263L60.8906 402.263Z" fill="black"/>
<path d="M83.656 96.864V114H87.184V101.976H87.232L91.432 114H94.336L98.536 101.856H98.584V114H102.112V96.864H96.808L93.016 108.648H92.968L88.96 96.864H83.656ZM109.413 105.504C109.413 104.752 109.493 104.024 109.653 103.32C109.829 102.616 110.101 101.992 110.469 101.448C110.837 100.888 111.317 100.448 111.909 100.128C112.501 99.792 113.221 99.624 114.069 99.624C114.917 99.624 115.637 99.792 116.229 100.128C116.821 100.448 117.301 100.888 117.669 101.448C118.037 101.992 118.301 102.616 118.461 103.32C118.637 104.024 118.725 104.752 118.725 105.504C118.725 106.224 118.637 106.928 118.461 107.616C118.301 108.288 118.037 108.896 117.669 109.44C117.301 109.984 116.821 110.424 116.229 110.76C115.637 111.08 114.917 111.24 114.069 111.24C113.221 111.24 112.501 111.08 111.909 110.76C111.317 110.424 110.837 109.984 110.469 109.44C110.101 108.896 109.829 108.288 109.653 107.616C109.493 106.928 109.413 106.224 109.413 105.504ZM105.645 105.504C105.645 106.752 105.837 107.92 106.221 109.008C106.605 110.08 107.157 111.016 107.877 111.816C108.597 112.616 109.477 113.248 110.517 113.712C111.573 114.16 112.757 114.384 114.069 114.384C115.397 114.384 116.581 114.16 117.621 113.712C118.661 113.248 119.541 112.616 120.261 111.816C120.981 111.016 121.533 110.08 121.917 109.008C122.301 107.92 122.493 106.752 122.493 105.504C122.493 104.224 122.301 103.04 121.917 101.952C121.533 100.848 120.981 99.888 120.261 99.072C119.541 98.256 118.661 97.616 117.621 97.152C116.581 96.688 115.397 96.456 114.069 96.456C112.757 96.456 111.573 96.688 110.517 97.152C109.477 97.616 108.597 98.256 107.877 99.072C107.157 99.888 106.605 100.848 106.221 101.952C105.837 103.04 105.645 104.224 105.645 105.504ZM133.997 114L139.685 96.864H135.797L131.933 108.912H131.885L128.069 96.864L124.205 96.864L129.749 114H133.997ZM142.106 96.864V114H145.874V96.864H142.106ZM150.144 96.864V114H163.152V110.832H153.912V106.632H162.216V103.704H153.912V100.032H162.96V96.864H150.144ZM178.099 100.032V114H181.867V100.032H187.003V96.864H172.963V100.032H178.099ZM193.707 104.616V99.792H197.835C198.699 99.792 199.347 99.984 199.779 100.368C200.211 100.736 200.427 101.336 200.427 102.168C200.427 103.032 200.211 103.656 199.779 104.04C199.347 104.424 198.699 104.616 197.835 104.616H193.707ZM189.939 96.864V114H193.707V107.304H197.475C198.419 107.304 199.099 107.512 199.515 107.928C199.931 108.344 200.203 109 200.331 109.896C200.427 110.584 200.499 111.304 200.547 112.056C200.595 112.808 200.723 113.456 200.931 114L204.699 114C204.523 113.76 204.387 113.472 204.291 113.136C204.211 112.784 204.147 112.416 204.099 112.032C204.067 111.648 204.043 111.272 204.027 110.904C204.011 110.536 203.995 110.216 203.979 109.944C203.947 109.512 203.883 109.08 203.787 108.648C203.707 108.216 203.571 107.824 203.379 107.472C203.187 107.104 202.939 106.792 202.635 106.536C202.331 106.264 201.947 106.064 201.483 105.936V105.888C202.443 105.504 203.131 104.944 203.547 104.208C203.979 103.472 204.195 102.6 204.195 101.592C204.195 100.936 204.075 100.328 203.835 99.768C203.611 99.192 203.275 98.688 202.827 98.256C202.395 97.824 201.867 97.488 201.243 97.248C200.635 96.992 199.947 96.864 199.179 96.864H189.939ZM222.763 107.52V96.864H218.995V107.52C218.995 108.8 218.739 109.744 218.227 110.352C217.715 110.944 216.787 111.24 215.443 111.24C214.675 111.24 214.059 111.136 213.595 110.928C213.147 110.704 212.795 110.424 212.539 110.088C212.283 109.736 212.115 109.336 212.035 108.888C211.955 108.44 211.915 107.984 211.915 107.52V96.864H208.147V107.52C208.147 109.856 208.779 111.584 210.043 112.704C211.323 113.824 213.123 114.384 215.443 114.384C217.731 114.384 219.523 113.824 220.819 112.704C222.115 111.568 222.763 109.84 222.763 107.52ZM226.968 96.864V114H230.496V102.528H230.544L237.672 114H241.44V96.864H237.912V108.36H237.864L230.712 96.864H226.968ZM245.717 96.864V114H249.485V106.92H256.661V103.992H249.485V100.032H257.765V96.864H245.717ZM263.927 105.504C263.927 104.752 264.007 104.024 264.167 103.32C264.343 102.616 264.615 101.992 264.983 101.448C265.351 100.888 265.831 100.448 266.423 100.128C267.015 99.792 267.735 99.624 268.583 99.624C269.431 99.624 270.151 99.792 270.743 100.128C271.335 100.448 271.815 100.888 272.183 101.448C272.551 101.992 272.815 102.616 272.975 103.32C273.151 104.024 273.239 104.752 273.239 105.504C273.239 106.224 273.151 106.928 272.975 107.616C272.815 108.288 272.551 108.896 272.183 109.44C271.815 109.984 271.335 110.424 270.743 110.76C270.151 111.08 269.431 111.24 268.583 111.24C267.735 111.24 267.015 111.08 266.423 110.76C265.831 110.424 265.351 109.984 264.983 109.44C264.615 108.896 264.343 108.288 264.167 107.616C264.007 106.928 263.927 106.224 263.927 105.504ZM260.159 105.504C260.159 106.752 260.351 107.92 260.735 109.008C261.119 110.08 261.671 111.016 262.391 111.816C263.111 112.616 263.991 113.248 265.031 113.712C266.087 114.16 267.271 114.384 268.583 114.384C269.911 114.384 271.095 114.16 272.135 113.712C273.175 113.248 274.055 112.616 274.775 111.816C275.495 111.016 276.047 110.08 276.431 109.008C276.815 107.92 277.007 106.752 277.007 105.504C277.007 104.224 276.815 103.04 276.431 101.952C276.047 100.848 275.495 99.888 274.775 99.072C274.055 98.256 273.175 97.616 272.135 97.152C271.095 96.688 269.911 96.456 268.583 96.456C267.271 96.456 266.087 96.688 265.031 97.152C263.991 97.616 263.111 98.256 262.391 99.072C261.671 99.888 261.119 100.848 260.735 101.952C260.351 103.04 260.159 104.224 260.159 105.504Z" fill="black"/>
<path d="M59.4739 49H55V79H59.4739V49Z" fill="black"/>
<path d="M63.9479 49H61.7109V79H63.9479V49Z" fill="black"/>
<path d="M75.1328 49H68.4219V79H75.1328V49Z" fill="black"/>
<path d="M84.0814 49H79.6074V79H84.0814V49Z" fill="black"/>
<path d="M88.5553 49H86.3184V79H88.5553V49Z" fill="black"/>
<path d="M97.5026 49H95.2656V79H97.5026V49Z" fill="black"/>
<path d="M106.45 49H104.213V79H106.45V49Z" fill="black"/>
<path d="M119.872 49H110.924V79H119.872V49Z" fill="black"/>
<path d="M124.346 49H122.109V79H124.346V49Z" fill="black"/>
<path d="M131.057 49H128.82V79H131.057V49Z" fill="black"/>
<path d="M142.241 49H133.293V79H142.241V49Z" fill="black"/>
<path d="M151.189 49H144.479V79H151.189V49Z" fill="black"/>
<path d="M157.9 49H153.426V79H157.9V49Z" fill="black"/>
<path d="M164.611 49H160.137V79H164.611V49Z" fill="black"/>
<path d="M173.56 49H169.086V79H173.56V49Z" fill="black"/>
<path d="M180.27 49H178.033V79H180.27V49Z" fill="black"/>
<path d="M189.219 49H182.508V79H189.219V49Z" fill="black"/>
<path d="M195.929 49H191.455V79H195.929V49Z" fill="black"/>
<path d="M204.878 49H202.641V79H204.878V49Z" fill="black"/>
<path d="M218.299 49H211.588V79H218.299V49Z" fill="black"/>
<path d="M225.009 49H220.535V79H225.009V49Z" fill="black"/>
<path d="M233.957 49H227.246V79H233.957V49Z" fill="black"/>
<path d="M238.43 49H236.193V79H238.43V49Z" fill="black"/>
<path d="M245.142 49H240.668V79H245.142V49Z" fill="black"/>
<path d="M256.327 49H251.854V79H256.327V49Z" fill="black"/>
<path d="M265.274 49H263.037V79H265.274V49Z" fill="black"/>
<path d="M274.223 49H271.986V79H274.223V49Z" fill="black"/>
<path d="M278.696 49H276.459V79H278.696V49Z" fill="black"/>
<path d="M289.882 49H285.408V79H289.882V49Z" fill="black"/>
<path d="M294.356 49H292.119V79H294.356V49Z" fill="black"/>
<path fill-rule="evenodd" clip-rule="evenodd" d="M0 146H360V209.007C359.834 209.002 359.668 209 359.501 209C349.863 209 342.05 216.835 342.05 226.5C342.05 236.165 349.863 244 359.501 244C359.668 244 359.834 243.998 360 243.993V308H0V243.993C0.165637 243.998 0.331852 244 0.498613 244C10.1368 244 17.9501 236.165 17.9501 226.5C17.9501 216.835 10.1368 209 0.498613 209C0.331852 209 0.165637 209.002 0 209.007V146Z" fill="#C2DDFF"/>
<path d="M-1 227L359 227" stroke="black" stroke-dasharray="4 4"/>
</g>
<defs>
<clipPath id="clip0_120_3776">
<rect width="360" height="540" rx="8" fill="white"/>
</clipPath>
</defs>
</svg>
