<svg width="318" height="317" viewBox="0 0 318 317" fill="none" xmlns="http://www.w3.org/2000/svg">
<g filter="url(#filter0_d_120_9260)">
<path d="M125.606 276.848L130.145 263.309L125.462 261.739C123.384 261.098 121.643 261.154 120.237 261.907C118.815 262.667 117.727 264.173 116.972 266.423C116.218 268.673 116.181 270.524 116.861 271.976C117.525 273.436 118.878 274.536 120.922 275.278L125.606 276.848ZM128.487 263.977L124.685 275.316L121.935 274.394C120.962 274.068 120.164 273.681 119.54 273.233C118.9 272.793 118.429 272.269 118.126 271.662C117.824 271.054 117.686 270.354 117.713 269.561C117.74 268.769 117.922 267.867 118.262 266.855C118.601 265.844 118.998 265.014 119.455 264.365C119.912 263.717 120.444 263.241 121.051 262.939C121.659 262.636 122.353 262.496 123.133 262.519C123.896 262.55 124.764 262.728 125.738 263.055L128.487 263.977Z" fill="#FFB763"/>
<path d="M110.963 271.563L116.681 258.478L115.435 257.933L109.717 271.018L110.963 271.563Z" fill="#FFB763"/>
<path d="M108.885 260.193L110.078 260.845C110.535 260.092 110.797 259.376 110.863 258.698C110.918 258.014 110.818 257.375 110.565 256.781C110.312 256.187 109.918 255.63 109.382 255.11C108.839 254.601 108.2 254.145 107.462 253.742C106.725 253.34 106.055 253.065 105.452 252.918C104.855 252.759 104.323 252.689 103.857 252.708C103.373 252.732 102.958 252.824 102.612 252.985C102.254 253.139 101.953 253.316 101.707 253.516C101.443 253.721 101.235 253.934 101.084 254.156C100.921 254.371 100.801 254.548 100.724 254.689C100.443 255.203 100.291 255.69 100.269 256.149C100.235 256.601 100.302 257.033 100.473 257.445C100.624 257.862 100.855 258.261 101.163 258.643C101.453 259.029 101.789 259.402 102.17 259.762L104.812 262.185C105.037 262.384 105.241 262.594 105.424 262.815C105.596 263.031 105.727 263.262 105.82 263.51C105.912 263.758 105.954 264.016 105.944 264.284C105.916 264.558 105.822 264.841 105.663 265.133C105.407 265.601 105.105 265.945 104.757 266.166C104.409 266.386 104.043 266.513 103.66 266.546C103.259 266.586 102.849 266.544 102.43 266.421C101.992 266.304 101.569 266.134 101.159 265.91C100.715 265.667 100.329 265.373 100.001 265.027C99.6554 264.686 99.3975 264.31 99.2275 263.898C99.0393 263.491 98.9507 263.055 98.9616 262.59C98.9543 262.131 99.07 261.655 99.3086 261.162L98.115 260.51C97.7636 261.154 97.5855 261.786 97.581 262.406C97.5583 263.032 97.6681 263.624 97.9105 264.181C98.1528 264.739 98.5101 265.253 98.9823 265.724C99.4546 266.194 100.001 266.599 100.621 266.938C101.499 267.417 102.289 267.681 102.991 267.73C103.687 267.791 104.298 267.73 104.823 267.546C105.337 267.356 105.765 267.088 106.106 266.742C106.446 266.397 106.7 266.072 106.866 265.768C107.134 265.276 107.285 264.819 107.318 264.397C107.34 263.968 107.286 263.566 107.156 263.191C107.026 262.817 106.83 262.467 106.568 262.141C106.293 261.809 106 261.497 105.689 261.205L103.271 258.996C103.017 258.766 102.77 258.51 102.53 258.227C102.283 257.955 102.085 257.665 101.935 257.355C101.773 257.039 101.687 256.71 101.675 256.37C101.652 256.023 101.736 255.674 101.928 255.323C102.177 254.867 102.502 254.535 102.903 254.329C103.298 254.134 103.723 254.025 104.177 253.999C104.614 253.979 105.05 254.028 105.488 254.145C105.925 254.262 106.308 254.41 106.635 254.589C107.209 254.903 107.718 255.249 108.164 255.629C108.603 256.021 108.94 256.448 109.174 256.91C109.396 257.365 109.494 257.867 109.468 258.415C109.442 258.963 109.248 259.556 108.885 260.193Z" fill="#FFB763"/>
<path d="M86.0707 252.047L84.9704 251.248C84.6071 251.907 84.4026 252.574 84.3568 253.249C84.3003 253.917 84.3742 254.564 84.5784 255.19C84.764 255.819 85.0624 256.407 85.4734 256.953C85.8736 257.491 86.3488 257.96 86.899 258.359C87.8051 259.018 88.7248 259.43 89.6582 259.597C90.5728 259.767 91.4605 259.737 92.3211 259.505C93.1738 259.284 93.9759 258.894 94.7275 258.336C95.4791 257.778 96.1449 257.1 96.7248 256.301C97.3047 255.503 97.7439 254.66 98.0424 253.773C98.3409 252.886 98.4635 252.002 98.4101 251.123C98.3567 250.244 98.1116 249.39 97.675 248.562C97.2197 247.737 96.539 246.995 95.6328 246.337C94.9533 245.843 94.26 245.504 93.5531 245.32C92.8355 245.129 92.1267 245.083 91.4268 245.185C90.7269 245.286 90.0399 245.529 89.3657 245.912C88.6914 246.296 88.0579 246.816 87.4652 247.473L88.5655 248.273C88.9956 247.794 89.4723 247.399 89.9956 247.087C90.5111 246.786 91.0467 246.581 91.6025 246.474C92.1582 246.367 92.7224 246.373 93.2949 246.492C93.8675 246.612 94.4235 246.867 94.9628 247.259C95.7287 247.816 96.281 248.439 96.6195 249.13C96.9581 249.821 97.1329 250.533 97.1441 251.266C97.1367 252.003 96.9998 252.735 96.7336 253.465C96.4487 254.197 96.079 254.876 95.6245 255.502C95.1621 256.138 94.6306 256.7 94.0299 257.186C93.4185 257.665 92.7678 258.016 92.0778 258.24C91.3691 258.467 90.634 258.526 89.8722 258.418C89.1105 258.31 88.3467 257.977 87.5808 257.421C87.1601 257.115 86.8079 256.76 86.5244 256.357C86.2223 255.956 86.001 255.523 85.8606 255.059C85.7094 254.586 85.6552 254.094 85.698 253.581C85.7223 253.071 85.8465 252.56 86.0707 252.047Z" fill="#FFB763"/>
<path d="M82.9892 246.007C82.4418 246.572 81.8365 247.053 81.1733 247.45C80.5005 247.837 79.8068 248.094 79.0922 248.218C78.3587 248.343 77.6225 248.298 76.8836 248.083C76.1447 247.869 75.4353 247.432 74.7554 246.773C74.0755 246.115 73.6214 245.424 73.3931 244.701C73.1553 243.97 73.0919 243.24 73.2029 242.512C73.2952 241.785 73.5292 241.083 73.9051 240.408C74.2715 239.723 74.7284 239.098 75.2757 238.533C75.8139 237.978 76.4239 237.501 77.106 237.104C77.7692 236.707 78.4675 236.446 79.2011 236.321C79.9157 236.197 80.6425 236.242 81.3814 236.457C82.1107 236.662 82.8153 237.094 83.4952 237.753C84.175 238.411 84.6339 239.107 84.8718 239.838C85.1097 240.57 85.1825 241.3 85.0903 242.027C84.9792 242.755 84.7405 243.461 84.3742 244.146C83.989 244.831 83.5273 245.451 82.9892 246.007ZM83.966 246.953C84.6525 246.244 85.2061 245.472 85.6266 244.635C86.0471 243.799 86.2928 242.942 86.3638 242.064C86.4348 241.186 86.3124 240.306 85.9968 239.425C85.6622 238.543 85.0928 237.713 84.2884 236.934C83.484 236.155 82.641 235.616 81.7594 235.319C80.8685 235.031 79.9854 234.937 79.11 235.036C78.2346 235.134 77.3856 235.407 76.5629 235.854C75.7402 236.301 74.9856 236.878 74.299 237.587C73.6124 238.296 73.0589 239.068 72.6384 239.904C72.2179 240.741 71.9721 241.598 71.9011 242.476C71.8209 243.364 71.9432 244.244 72.2682 245.115C72.5838 245.997 73.1439 246.827 73.9483 247.606C74.7526 248.386 75.6051 248.924 76.5055 249.221C77.3872 249.518 78.2703 249.612 79.1549 249.504C80.0303 249.405 80.8793 249.133 81.702 248.686C82.5248 248.239 83.2794 247.662 83.966 246.953Z" fill="#FFB763"/>
<path d="M66.8617 240.105L74.7869 227.106L73.8068 225.867L59.3186 230.568L60.2119 231.697L73.0893 227.378L73.1141 227.409L65.9684 238.976L66.8617 240.105Z" fill="#FFB763"/>
<path d="M56.8857 227.114L69.0669 219.662L63.8692 211.165L62.8797 211.771L67.3677 219.107L62.5566 222.05L58.4026 215.26L57.4131 215.865L61.5671 222.655L57.1654 225.348L52.7296 218.097L51.7401 218.703L56.8857 227.114Z" fill="#FFB763"/>
<path d="M54.9469 210.346L49.8279 212.666L47.7313 208.039C47.3021 207.091 47.2137 206.282 47.4661 205.612C47.7185 204.941 48.2454 204.424 49.047 204.061C49.4478 203.879 49.8418 203.796 50.2291 203.811C50.5988 203.819 50.9507 203.901 51.2849 204.057C51.619 204.213 51.9239 204.434 52.1994 204.719C52.4628 205.009 52.6798 205.343 52.8504 205.719L54.9469 210.346ZM49.3326 214.383L62.3397 208.49L61.7784 207.251L56.0035 209.868L53.8739 205.168C53.5855 204.596 53.4763 204.096 53.5463 203.669C53.6109 203.23 53.7868 202.843 54.0741 202.508C54.3437 202.166 54.6983 201.866 55.1378 201.609C55.5596 201.344 55.9958 201.095 56.4463 200.862C56.5744 200.789 56.7268 200.706 56.9035 200.611C57.0801 200.516 57.2629 200.419 57.4517 200.319C57.6228 200.212 57.7913 200.099 57.9569 199.98C58.1049 199.854 58.2232 199.728 58.3116 199.6L57.6925 198.233C57.5952 198.439 57.4261 198.647 57.1853 198.859C56.9268 199.063 56.648 199.256 56.3487 199.435C56.0373 199.62 55.7265 199.79 55.4162 199.946C55.1059 200.101 54.8443 200.234 54.6312 200.345C54.2535 200.546 53.92 200.763 53.6306 200.996C53.3236 201.223 53.0838 201.485 52.9113 201.783C52.7333 202.069 52.6287 202.387 52.5974 202.738C52.5539 203.094 52.5981 203.499 52.73 203.951L52.6935 203.968C52.1438 203.207 51.469 202.751 50.6692 202.601C49.8694 202.452 49.0565 202.564 48.2307 202.938C47.6477 203.202 47.1932 203.54 46.8672 203.951C46.5236 204.355 46.3007 204.8 46.1986 205.286C46.0788 205.765 46.0622 206.277 46.1487 206.823C46.2298 207.358 46.3913 207.892 46.6335 208.426L49.3326 214.383Z" fill="#FFB763"/>
<path d="M41.1532 194.372L42.2783 194.09L41.0705 189.279L53.7955 186.084L53.4644 184.765L40.7393 187.96L39.5266 183.13L38.4015 183.412L41.1532 194.372Z" fill="#FFB763"/>
<path d="M37.5715 179.512L51.743 177.755L51.5756 176.405L44.7082 177.257L43.6644 168.841L50.5318 167.99L50.3644 166.64L36.193 168.398L36.3604 169.747L42.5133 168.984L43.557 177.4L37.4041 178.163L37.5715 179.512Z" fill="#FFB763"/>
<path d="M35.8362 162.788L50.116 162.856L50.1633 152.896L49.0033 152.891L48.9625 161.491L43.3225 161.464L43.3603 153.504L42.2004 153.498L42.1625 161.458L37.0026 161.434L37.043 152.934L35.883 152.928L35.8362 162.788Z" fill="#FFB763"/>
<path d="M43.3862 140.5L38.3766 139.545L39.2536 134.948C39.6558 132.839 40.7345 131.952 42.4895 132.287C42.8169 132.349 43.1122 132.474 43.3754 132.659C43.6385 132.845 43.8564 133.091 44.0291 133.395C44.1887 133.697 44.2965 134.057 44.3525 134.475C44.3954 134.89 44.3657 135.366 44.2632 135.903L43.3862 140.5ZM36.9823 140.663L51.0093 143.339L52.1411 137.406C52.2861 136.647 52.3443 135.986 52.3157 135.424C52.2766 134.846 52.1872 134.354 52.0476 133.947C51.8974 133.525 51.6995 133.175 51.4539 132.898C51.2082 132.62 50.9525 132.395 50.6869 132.222C50.4081 132.046 50.135 131.913 49.8674 131.821C49.5868 131.727 49.3352 131.659 49.1125 131.616C48.1957 131.441 47.3783 131.564 46.6603 131.983C45.9292 132.4 45.4185 133.049 45.1282 133.93L45.0889 133.923C45.0803 133.541 45.0053 133.188 44.8638 132.862C44.7248 132.523 44.5378 132.223 44.3027 131.961C44.057 131.683 43.7752 131.453 43.4571 131.27C43.126 131.085 42.7771 130.957 42.4104 130.887C41.7555 130.762 41.1882 130.783 40.7086 130.949C40.2158 131.113 39.7984 131.38 39.4566 131.749C39.1041 132.103 38.8229 132.544 38.6132 133.074C38.3929 133.589 38.2265 134.141 38.1141 134.73L36.9823 140.663ZM50.1247 141.786L44.5257 140.718L45.4027 136.121C45.63 134.929 46.0329 134.062 46.6112 133.521C47.1789 132.964 47.9147 132.772 48.8184 132.944C49.3815 133.052 49.8343 133.24 50.1766 133.509C50.5059 133.775 50.7493 134.1 50.907 134.483C51.0647 134.866 51.1469 135.289 51.1537 135.752C51.1473 136.212 51.0966 136.691 51.0017 137.189L50.1247 141.786Z" fill="#FFB763"/>
<path d="M40.359 124.753L53.9327 129.188L57.0262 119.72L55.9236 119.36L53.2525 127.535L47.8914 125.783L50.3638 118.217L49.2612 117.856L46.7888 125.423L41.884 123.82L44.5241 115.741L43.4214 115.38L40.359 124.753Z" fill="#FFB763"/>
<path d="M54.1287 114.265L53.5556 115.498C54.3368 115.905 55.0678 116.12 55.7485 116.142C56.4348 116.152 57.066 116.012 57.6423 115.721C58.2186 115.43 58.7491 115 59.2338 114.432C59.7065 113.857 60.1198 113.189 60.4738 112.428C60.8278 111.666 61.0586 110.979 61.1663 110.368C61.2862 109.762 61.3215 109.227 61.2724 108.763C61.2169 108.281 61.0978 107.873 60.9152 107.538C60.7382 107.191 60.542 106.902 60.3265 106.669C60.1046 106.419 59.8784 106.226 59.6478 106.089C59.4228 105.941 59.2377 105.833 59.0926 105.765C58.5606 105.518 58.065 105.398 57.6059 105.405C57.1524 105.4 56.7256 105.496 56.3256 105.692C55.9191 105.871 55.5358 106.127 55.1754 106.459C54.8087 106.774 54.4581 107.133 54.1236 107.536L51.8773 110.33C51.6932 110.568 51.4966 110.785 51.2875 110.982C51.0841 111.167 50.8616 111.313 50.6201 111.422C50.3786 111.53 50.1238 111.588 49.8556 111.596C49.5809 111.586 49.2924 111.511 48.9901 111.37C48.5064 111.145 48.1435 110.866 47.9013 110.533C47.6591 110.2 47.5087 109.844 47.4501 109.464C47.385 109.066 47.4 108.654 47.4951 108.227C47.5838 107.784 47.7265 107.35 47.9231 106.927C48.1366 106.467 48.4054 106.063 48.7294 105.713C49.047 105.346 49.4058 105.065 49.8058 104.868C50.1993 104.654 50.6285 104.538 51.0932 104.518C51.5515 104.481 52.0341 104.566 52.5411 104.772L53.1142 103.539C52.4491 103.23 51.8069 103.093 51.1876 103.129C50.5617 103.147 49.9784 103.295 49.4375 103.573C48.8967 103.851 48.4068 104.24 47.9678 104.742C47.5289 105.244 47.1605 105.815 46.8627 106.456C46.4413 107.363 46.2288 108.168 46.2251 108.872C46.2094 109.571 46.3102 110.176 46.5278 110.689C46.7509 111.19 47.046 111.599 47.413 111.916C47.7801 112.234 48.1208 112.466 48.4352 112.612C48.943 112.848 49.4088 112.969 49.8325 112.974C50.2618 112.968 50.6592 112.888 51.0246 112.734C51.3901 112.581 51.7268 112.362 52.0348 112.079C52.3485 111.784 52.6408 111.471 52.9117 111.141L54.9591 108.586C55.1721 108.317 55.4121 108.054 55.6791 107.796C55.934 107.532 56.2111 107.315 56.5105 107.146C56.8155 106.964 57.1375 106.856 57.4765 106.823C57.8212 106.777 58.1749 106.838 58.5377 107.007C59.0093 107.226 59.361 107.529 59.5928 107.916C59.8125 108.298 59.9497 108.714 60.0044 109.166C60.0527 109.6 60.0325 110.039 59.9438 110.483C59.8551 110.927 59.7321 111.318 59.5748 111.657C59.2995 112.25 58.9866 112.78 58.6362 113.25C58.2737 113.714 57.8695 114.077 57.4237 114.34C56.9835 114.592 56.4892 114.722 55.9407 114.732C55.3921 114.742 54.7882 114.586 54.1287 114.265Z" fill="#FFB763"/>
<path d="M50.8197 98.8408L51.8069 99.45L54.4119 95.2292L65.5767 102.12L66.291 100.962L55.1261 94.0718L57.7416 89.834L56.7545 89.2247L50.8197 98.8408Z" fill="#FFB763"/>
<path d="M73.679 75.2184L74.5923 74.2107C73.9764 73.7784 73.3352 73.5031 72.6686 73.3848C72.011 73.2566 71.3598 73.2603 70.7152 73.3958C70.0696 73.5125 69.4533 73.7457 68.8664 74.0955C68.2884 74.4354 67.771 74.8572 67.3144 75.3611C66.5622 76.1909 66.0527 77.0608 65.7859 77.9707C65.5182 78.8617 65.4532 79.7475 65.5908 80.628C65.7186 81.4996 66.0194 82.3391 66.4933 83.1465C66.9672 83.9539 67.5696 84.6889 68.3007 85.3515C69.0318 86.0141 69.8223 86.5416 70.6722 86.9341C71.5222 87.3266 72.3871 87.5437 73.267 87.5854C74.1469 87.6271 75.0221 87.4756 75.8925 87.1308C76.7619 86.7671 77.5727 86.1704 78.3249 85.3405C78.889 84.7181 79.3006 84.0654 79.5596 83.3825C79.8277 82.6897 79.9491 81.99 79.9238 81.2832C79.8985 80.5765 79.7315 79.8673 79.4228 79.1556C79.1141 78.444 78.6651 77.7581 78.0757 77.0979L77.1624 78.1056C77.5918 78.5848 77.9334 79.1014 78.1872 79.6553C78.4311 80.2002 78.5763 80.7547 78.6229 81.3188C78.6695 81.8829 78.6026 82.4431 78.4223 82.9995C78.2419 83.5558 77.9279 84.081 77.4802 84.5749C76.8444 85.2764 76.1649 85.7581 75.4415 86.0202C74.718 86.2823 73.9913 86.3793 73.2611 86.3114C72.53 86.2246 71.8162 86.0095 71.1197 85.6661C70.4222 85.3039 69.787 84.8632 69.214 84.3438C68.6311 83.8155 68.1302 83.2266 67.7113 82.5769C67.3013 81.9174 67.0223 81.2326 66.8741 80.5225C66.725 79.7935 66.7455 79.0563 66.9354 78.3107C67.1253 77.565 67.5381 76.8415 68.1739 76.1401C68.5231 75.7548 68.9137 75.443 69.3456 75.2047C69.7766 74.9475 70.2307 74.7742 70.7077 74.6847C71.1936 74.5853 71.6892 74.5845 72.1943 74.6824C72.6985 74.7615 73.1934 74.9401 73.679 75.2184Z" fill="#FFB763"/>
<path d="M82.1624 73.1151L79.5918 65.6886L86.4401 69.4702L82.1624 73.1151ZM78.177 65.1074L83.0694 79.6995L84.1654 78.7656L82.595 74.2705L87.5426 70.0548L91.7466 72.3059L92.8579 71.359L79.3339 64.1215L78.177 65.1074Z" fill="#FFB763"/>
<path d="M91.249 63.3047L88.1609 58.6091L92.4052 55.8178C93.2742 55.2463 94.0595 55.033 94.7612 55.178C95.4629 55.3229 96.0556 55.763 96.5391 56.4982C96.7809 56.8658 96.9246 57.2421 96.9703 57.627C97.0198 57.9934 96.9935 58.3538 96.8914 58.7082C96.7893 59.0625 96.619 59.398 96.3803 59.7145C96.1343 60.0199 95.8387 60.2862 95.4933 60.5133L91.249 63.3047ZM86.3872 58.3872L94.2338 70.3183L95.3701 69.571L91.8864 64.2739L96.1976 61.4385C96.7176 61.0646 97.194 60.879 97.6267 60.8817C98.0705 60.8771 98.4802 60.9906 98.856 61.2222C99.2356 61.4354 99.5868 61.7389 99.9098 62.133C100.237 62.5085 100.55 62.9006 100.851 63.3093C100.943 63.4245 101.049 63.562 101.17 63.7218C101.291 63.8816 101.416 64.0469 101.544 64.2178C101.676 64.3703 101.814 64.519 101.957 64.6642C102.105 64.7908 102.248 64.8879 102.388 64.9553L103.642 64.1311C103.424 64.0669 103.192 63.9323 102.945 63.7273C102.702 63.5039 102.469 63.2584 102.245 62.9907C102.014 62.7119 101.798 62.4314 101.596 62.1491C101.394 61.8668 101.222 61.629 101.079 61.4358C100.822 61.094 100.556 60.7983 100.28 60.5488C100.008 60.2808 99.7118 60.0848 99.3909 59.9608C99.081 59.8294 98.7504 59.7756 98.3989 59.7993C98.0401 59.8118 97.6475 59.9185 97.2209 60.1192L97.199 60.0858C97.8651 59.4243 98.2099 58.6868 98.2335 57.8734C98.2571 57.06 98.0198 56.2745 97.5216 55.517C97.1699 54.9822 96.7656 54.5859 96.3086 54.3278C95.8555 54.0513 95.3812 53.9005 94.8859 53.8752C94.3943 53.8314 93.8854 53.8948 93.3592 54.0653C92.8442 54.2285 92.3415 54.4713 91.8514 54.7936L86.3872 58.3872Z" fill="#FFB763"/>
<path d="M99.7114 49.9152L105.981 62.7452L110.419 60.5763C112.349 59.5742 113.55 58.312 114.023 56.7897C114.502 55.2496 114.221 53.4134 113.179 51.2811C112.137 49.1487 110.864 47.8044 109.36 47.2481C107.863 46.6739 106.126 46.84 104.15 47.7462L99.7114 49.9152ZM106.694 61.1059L101.443 50.3603L104.048 49.087C104.971 48.6363 105.811 48.3517 106.569 48.2334C107.334 48.0972 108.037 48.1394 108.679 48.3599C109.321 48.5805 109.911 48.9824 110.448 49.5657C110.985 50.149 111.488 50.9198 111.957 51.8782C112.425 52.8366 112.724 53.7069 112.854 54.4893C112.984 55.2716 112.939 55.9838 112.718 56.6258C112.498 57.2678 112.102 57.8545 111.531 58.386C110.965 58.8997 110.222 59.3819 109.299 59.8326L106.694 61.1059Z" fill="#FFB763"/>
<path d="M117.738 52.0693L116.451 52.5106C116.699 53.356 117.051 54.0318 117.506 54.538C117.974 55.0399 118.513 55.3978 119.122 55.6117C119.731 55.8256 120.409 55.9103 121.155 55.8658C121.896 55.8087 122.664 55.6438 123.459 55.3712C124.253 55.0986 124.908 54.7893 125.424 54.4432C125.944 54.1098 126.354 53.7646 126.655 53.4078C126.963 53.034 127.175 52.6654 127.29 52.3017C127.417 51.9338 127.49 51.5916 127.509 51.2752C127.535 50.9418 127.518 50.6447 127.457 50.3838C127.408 50.1186 127.358 49.9104 127.306 49.759C127.115 49.2041 126.858 48.7636 126.535 48.4376C126.224 48.1072 125.86 47.8658 125.441 47.7135C125.03 47.5442 124.58 47.4449 124.091 47.4154C123.61 47.369 123.108 47.365 122.586 47.4033L119.015 47.7193C118.716 47.7514 118.423 47.7603 118.136 47.7459C117.862 47.7273 117.602 47.6684 117.357 47.5694C117.111 47.4703 116.893 47.3268 116.701 47.1387C116.518 46.9337 116.373 46.6735 116.264 46.3583C116.091 45.8538 116.041 45.3988 116.113 44.9934C116.186 44.588 116.338 44.2325 116.572 43.9268C116.814 43.6043 117.121 43.3296 117.494 43.1028C117.876 42.8592 118.287 42.6616 118.729 42.5101C119.208 42.3457 119.686 42.2593 120.162 42.2509C120.647 42.2256 121.099 42.2891 121.518 42.4414C121.945 42.5768 122.326 42.8054 122.662 43.1271C123.006 43.4319 123.28 43.8385 123.482 44.3469L124.769 43.9055C124.531 43.2119 124.184 42.6541 123.729 42.2323C123.283 41.7934 122.772 41.4754 122.197 41.278C121.622 41.0807 121.001 40.9976 120.335 41.0287C119.669 41.0598 119.002 41.1901 118.334 41.4194C117.388 41.744 116.66 42.1488 116.149 42.634C115.635 43.1065 115.268 43.5988 115.049 44.111C114.843 44.6188 114.752 45.115 114.778 45.5997C114.803 46.0844 114.872 46.4906 114.984 46.8185C115.166 47.3482 115.402 47.7678 115.691 48.0773C115.993 48.3825 116.326 48.6136 116.69 48.7706C117.054 48.9276 117.445 49.0191 117.863 49.0449C118.293 49.0665 118.721 49.0606 119.147 49.0273L122.408 48.7331C122.749 48.7006 123.105 48.6911 123.476 48.7047C123.843 48.7057 124.191 48.7554 124.521 48.8537C124.863 48.9477 125.164 49.1053 125.423 49.3265C125.695 49.5433 125.896 49.841 126.026 50.2193C126.195 50.7112 126.22 51.1748 126.101 51.6101C125.978 52.0328 125.773 52.4204 125.485 52.7729C125.206 53.1085 124.875 53.3981 124.494 53.6418C124.112 53.8855 123.745 54.0679 123.392 54.1891C122.774 54.4011 122.174 54.5434 121.593 54.616C121.007 54.6759 120.465 54.6364 119.966 54.4974C119.48 54.3541 119.043 54.0881 118.656 53.6993C118.269 53.3106 117.963 52.7672 117.738 52.0693Z" fill="#FFB763"/>
<path d="M228.917 56.2228L225.152 69.0698L236.625 62.0458L238.221 63.2514L229.613 74.6454L228.528 73.8256L235.966 63.9795L235.934 63.9554L224.602 70.8599L223.581 70.0883L227.269 57.4091L227.237 57.385L219.799 67.2311L218.714 66.4113L227.321 55.0173L228.917 56.2228Z" fill="#FFB763"/>
<path d="M237.821 72.3415C238.385 71.7929 239.004 71.3299 239.679 70.9525C240.363 70.5847 241.064 70.3491 241.782 70.2458C242.518 70.1427 243.253 70.2093 243.985 70.4456C244.717 70.6819 245.414 71.1393 246.074 71.8178C246.734 72.4963 247.168 73.2 247.375 73.9288C247.591 74.6672 247.633 75.3986 247.5 76.1228C247.386 76.8473 247.132 77.5415 246.736 78.2056C246.35 78.8792 245.875 79.4903 245.311 80.0389C244.757 80.5782 244.133 81.0364 243.439 81.4135C242.765 81.7909 242.059 82.0311 241.322 82.1342C240.604 82.2375 239.879 82.171 239.147 81.9347C238.424 81.708 237.732 81.2554 237.072 80.5769C236.412 79.8984 235.974 79.19 235.757 78.4515C235.541 77.7131 235.49 76.9817 235.604 76.2572C235.736 75.533 235.996 74.8341 236.382 74.1605C236.787 73.4871 237.267 72.8808 237.821 72.3415ZM236.873 71.3668C236.165 72.0549 235.589 72.8107 235.144 73.6344C234.699 74.4581 234.429 75.3077 234.332 76.1833C234.235 77.0588 234.331 77.9417 234.621 78.832C234.929 79.7226 235.474 80.5692 236.255 81.3719C237.036 82.1746 237.863 82.7375 238.735 83.0606C239.617 83.3744 240.497 83.4948 241.375 83.422C242.253 83.3491 243.11 83.1015 243.945 82.6792C244.781 82.2569 245.552 81.7017 246.259 81.0136C246.966 80.3255 247.543 79.5696 247.988 78.746C248.433 77.9223 248.703 77.0727 248.8 76.1971C248.907 75.3123 248.81 74.4293 248.511 73.5483C248.222 72.6581 247.686 71.8116 246.905 71.0089C246.124 70.2062 245.288 69.6431 244.397 69.3198C243.524 68.9967 242.644 68.8763 241.757 68.9584C240.879 69.0313 240.022 69.2789 239.187 69.7012C238.351 70.1235 237.58 70.6787 236.873 71.3668Z" fill="#FFB763"/>
<path d="M253.723 78.6311L245.422 91.3939L246.366 92.6613L260.985 88.3848L260.125 87.2297L247.127 91.172L247.103 91.1399L254.583 79.7862L253.723 78.6311Z" fill="#FFB763"/>
<path d="M262.987 91.5694L250.86 99.11L251.578 100.265L263.705 92.7244L262.987 91.5694Z" fill="#FFB763"/>
<path d="M266.276 96.7527L253.562 103.255L258.097 112.122L259.13 111.594L255.214 103.937L260.235 101.369L263.86 108.456L264.892 107.928L261.268 100.841L265.862 98.4917L269.732 106.06L270.765 105.531L266.276 96.7527Z" fill="#FFB763"/>
<path d="M266.517 120.205L266.123 118.903C265.269 119.119 264.581 119.446 264.058 119.883C263.54 120.332 263.162 120.857 262.926 121.458C262.69 122.059 262.58 122.733 262.598 123.48C262.627 124.223 262.764 124.997 263.007 125.801C263.251 126.605 263.536 127.271 263.863 127.799C264.177 128.331 264.507 128.753 264.852 129.066C265.214 129.389 265.575 129.614 265.934 129.742C266.297 129.883 266.637 129.968 266.952 129.998C267.284 130.037 267.582 130.031 267.845 129.979C268.112 129.94 268.322 129.897 268.475 129.851C269.036 129.681 269.486 129.44 269.824 129.129C270.165 128.831 270.42 128.475 270.587 128.062C270.771 127.658 270.887 127.212 270.935 126.724C270.999 126.245 271.021 125.744 271.002 125.22L270.817 121.641C270.796 121.34 270.798 121.047 270.823 120.761C270.851 120.488 270.92 120.23 271.028 119.989C271.136 119.747 271.287 119.534 271.482 119.35C271.694 119.174 271.959 119.038 272.278 118.942C272.789 118.787 273.245 118.754 273.647 118.841C274.05 118.928 274.4 119.094 274.697 119.338C275.01 119.592 275.273 119.909 275.486 120.29C275.716 120.681 275.898 121.099 276.033 121.546C276.18 122.031 276.249 122.511 276.24 122.988C276.247 123.473 276.167 123.922 276 124.335C275.849 124.757 275.606 125.13 275.272 125.454C274.955 125.786 274.539 126.045 274.023 126.229L274.417 127.53C275.119 127.318 275.689 126.992 276.128 126.553C276.582 126.123 276.919 125.624 277.137 125.056C277.356 124.489 277.461 123.872 277.455 123.205C277.448 122.538 277.342 121.867 277.138 121.191C276.848 120.233 276.47 119.491 276.004 118.963C275.551 118.432 275.072 118.047 274.568 117.81C274.068 117.585 273.576 117.476 273.091 117.484C272.605 117.491 272.197 117.545 271.865 117.646C271.329 117.808 270.901 118.028 270.581 118.306C270.265 118.597 270.022 118.921 269.852 119.279C269.681 119.637 269.576 120.024 269.535 120.441C269.497 120.87 269.487 121.298 269.505 121.724L269.68 124.994C269.7 125.336 269.696 125.692 269.669 126.063C269.654 126.429 269.592 126.776 269.482 127.101C269.375 127.44 269.207 127.735 268.976 127.986C268.749 128.249 268.445 128.439 268.062 128.555C267.564 128.706 267.1 128.714 266.669 128.579C266.251 128.441 265.871 128.222 265.53 127.921C265.204 127.63 264.927 127.289 264.698 126.898C264.468 126.508 264.299 126.134 264.191 125.777C264.002 125.152 263.882 124.547 263.83 123.964C263.792 123.376 263.851 122.836 264.009 122.343C264.17 121.862 264.452 121.435 264.854 121.063C265.257 120.69 265.811 120.404 266.517 120.205Z" fill="#FFB763"/>
<path d="M279.676 131.179L270.665 132.708C269.942 132.831 269.269 133.047 268.645 133.356C268.036 133.675 267.526 134.093 267.113 134.61C266.703 135.139 266.411 135.77 266.238 136.503C266.08 137.246 266.083 138.105 266.249 139.077C266.416 140.063 266.696 140.875 267.088 141.511C267.495 142.159 267.979 142.658 268.539 143.009C269.101 143.374 269.721 143.6 270.399 143.688C271.092 143.787 271.8 143.775 272.523 143.652L281.534 142.122L281.306 140.781L272.591 142.261C271.776 142.399 271.064 142.425 270.454 142.34C269.857 142.251 269.345 142.061 268.917 141.769C268.502 141.474 268.165 141.085 267.907 140.601C267.662 140.115 267.484 139.544 267.373 138.887C267.263 138.242 267.244 137.651 267.315 137.111C267.398 136.57 267.588 136.091 267.882 135.676C268.19 135.259 268.611 134.91 269.145 134.63C269.692 134.348 270.373 134.137 271.188 133.999L279.904 132.519L279.676 131.179Z" fill="#FFB763"/>
<path d="M275.161 148.329L280.995 148.069L281.203 152.744C281.246 153.69 281.04 154.467 280.586 155.074C280.133 155.681 279.413 156.007 278.428 156.051C277.442 156.095 276.696 155.834 276.191 155.27C275.685 154.705 275.411 153.95 275.369 153.004L275.161 148.329ZM282.094 146.659L267.828 147.293L267.888 148.652L274.002 148.38L274.224 153.355C274.252 153.995 274.365 154.57 274.561 155.082C274.77 155.593 275.057 156.027 275.42 156.385C275.796 156.742 276.241 157.009 276.757 157.186C277.272 157.364 277.849 157.438 278.488 157.41C279.128 157.381 279.696 157.256 280.193 157.033C280.69 156.811 281.104 156.506 281.434 156.117C281.777 155.728 282.023 155.27 282.173 154.743C282.337 154.215 282.404 153.632 282.376 152.992L282.094 146.659Z" fill="#FFB763"/>
<path d="M282.559 161.673L268.322 160.572L267.554 170.502L268.71 170.592L269.373 162.017L274.997 162.452L274.383 170.388L275.54 170.478L276.153 162.541L281.298 162.939L280.643 171.414L281.799 171.503L282.559 161.673Z" fill="#FFB763"/>
<path d="M274.369 176.189L279.877 177.306L278.867 182.284C278.66 183.303 278.258 184.011 277.661 184.407C277.064 184.803 276.334 184.913 275.472 184.738C275.04 184.651 274.672 184.488 274.367 184.249C274.072 184.026 273.835 183.753 273.655 183.431C273.475 183.109 273.357 182.752 273.301 182.36C273.258 181.97 273.277 181.572 273.359 181.167L274.369 176.189ZM281.284 176.203L267.289 173.365L267.018 174.698L273.232 175.958L272.206 181.015C272.105 181.648 271.901 182.117 271.595 182.422C271.285 182.74 270.916 182.951 270.487 183.054C270.068 183.173 269.605 183.209 269.098 183.16C268.601 183.128 268.102 183.074 267.6 182.999C267.454 182.983 267.281 182.962 267.083 182.935C266.884 182.909 266.679 182.881 266.467 182.851C266.266 182.838 266.063 182.831 265.859 182.83C265.666 182.845 265.495 182.879 265.349 182.931L265.051 184.401C265.25 184.291 265.509 184.221 265.828 184.191C266.157 184.176 266.496 184.184 266.844 184.213C267.205 184.246 267.556 184.29 267.899 184.346C268.241 184.401 268.531 184.447 268.769 184.481C269.192 184.54 269.59 184.559 269.961 184.539C270.343 184.535 270.691 184.463 271.005 184.322C271.317 184.195 271.588 183.998 271.819 183.732C272.062 183.469 272.263 183.115 272.422 182.671L272.461 182.679C272.461 183.618 272.741 184.382 273.302 184.972C273.862 185.562 274.587 185.947 275.476 186.127C276.103 186.254 276.669 186.246 277.174 186.104C277.69 185.977 278.131 185.747 278.498 185.413C278.875 185.095 279.189 184.689 279.438 184.196C279.686 183.715 279.867 183.188 279.984 182.613L281.284 176.203Z" fill="#FFB763"/>
<path d="M276.123 197.674L275.046 197.243L273.201 201.846L261.023 196.964L260.517 198.227L272.694 203.109L270.841 207.731L271.918 208.163L276.123 197.674Z" fill="#FFB763"/>
<path d="M263.482 210.22L268.404 212.933L265.952 217.382C265.451 218.293 264.855 218.848 264.167 219.047C263.479 219.246 262.749 219.133 261.979 218.709C261.593 218.496 261.291 218.231 261.071 217.912C260.856 217.611 260.711 217.279 260.636 216.918C260.561 216.557 260.555 216.181 260.618 215.79C260.694 215.405 260.831 215.031 261.03 214.669L263.482 210.22ZM270.077 212.301L257.57 205.409L256.913 206.601L262.466 209.66L259.976 214.18C259.69 214.753 259.355 215.14 258.972 215.339C258.581 215.55 258.166 215.641 257.725 215.611C257.29 215.6 256.838 215.495 256.368 215.297C255.904 215.118 255.444 214.917 254.987 214.696C254.852 214.637 254.694 214.565 254.512 214.48C254.331 214.395 254.143 214.307 253.95 214.216C253.762 214.143 253.571 214.076 253.376 214.014C253.187 213.971 253.015 213.952 252.859 213.958L252.135 215.271C252.358 215.226 252.626 215.237 252.94 215.303C253.259 215.388 253.579 215.496 253.902 215.628C254.237 215.767 254.559 215.914 254.869 216.07C255.179 216.226 255.443 216.355 255.659 216.46C256.046 216.642 256.419 216.779 256.78 216.871C257.145 216.982 257.499 217.017 257.841 216.977C258.176 216.948 258.494 216.842 258.793 216.657C259.105 216.478 259.403 216.201 259.686 215.824L259.721 215.843C259.441 216.739 259.48 217.552 259.838 218.283C260.197 219.013 260.773 219.597 261.568 220.035C262.128 220.344 262.671 220.506 263.195 220.521C263.725 220.554 264.215 220.466 264.665 220.257C265.12 220.067 265.54 219.773 265.926 219.377C266.306 218.992 266.637 218.543 266.92 218.029L270.077 212.301Z" fill="#FFB763"/>
<path d="M262.429 225.776L255.055 220.376C254.463 219.943 253.839 219.61 253.183 219.378C252.53 219.164 251.875 219.089 251.217 219.152C250.551 219.227 249.895 219.457 249.248 219.843C248.605 220.248 247.992 220.848 247.409 221.644C246.818 222.451 246.431 223.217 246.247 223.942C246.066 224.685 246.045 225.38 246.183 226.027C246.313 226.684 246.583 227.286 246.992 227.834C247.404 228.4 247.906 228.899 248.497 229.332L255.872 234.732L256.675 233.635L249.543 228.412C248.876 227.924 248.361 227.431 247.998 226.934C247.645 226.445 247.425 225.944 247.336 225.433C247.259 224.93 247.303 224.418 247.471 223.896C247.649 223.382 247.935 222.856 248.329 222.318C248.715 221.791 249.126 221.365 249.562 221.04C250.009 220.722 250.484 220.525 250.987 220.447C251.501 220.377 252.045 220.436 252.618 220.624C253.201 220.82 253.826 221.163 254.493 221.651L261.626 226.873L262.429 225.776Z" fill="#FFB763"/>
<path d="M252.717 238.68L242.425 228.781L241.482 229.761L250.189 238.135L250.161 238.164L235.687 235.787L234.633 236.882L244.926 246.781L245.869 245.801L237.162 237.427L237.189 237.398L251.664 239.775L252.717 238.68Z" fill="#FFB763"/>
<path d="M241.201 250.243L232.14 239.206L231.088 240.069L235.403 245.325L230.117 249.665L230.853 250.561L236.139 246.221L239.414 250.209L233.462 255.095L234.198 255.992L241.201 250.243Z" fill="#FFB763"/>
<path d="M226.857 252.687C227.277 253.352 227.602 254.054 227.832 254.792C228.05 255.537 228.136 256.272 228.089 256.995C228.037 257.738 227.82 258.443 227.438 259.11C227.055 259.778 226.464 260.364 225.664 260.87C224.863 261.376 224.085 261.655 223.329 261.706C222.562 261.765 221.838 261.655 221.157 261.376C220.471 261.115 219.845 260.722 219.277 260.198C218.698 259.681 218.198 259.09 217.778 258.425C217.365 257.771 217.045 257.066 216.819 256.309C216.59 255.571 216.501 254.831 216.552 254.089C216.599 253.365 216.814 252.669 217.197 252.002C217.568 251.341 218.154 250.758 218.954 250.252C219.754 249.747 220.538 249.464 221.305 249.406C222.072 249.347 222.798 249.448 223.484 249.708C224.165 249.988 224.795 250.386 225.374 250.903C225.95 251.439 226.444 252.034 226.857 252.687ZM228.006 251.961C227.479 251.127 226.859 250.407 226.145 249.801C225.431 249.196 224.656 248.755 223.819 248.479C222.982 248.204 222.099 248.115 221.168 248.215C220.233 248.332 219.292 248.69 218.345 249.289C217.398 249.887 216.677 250.58 216.18 251.367C215.691 252.165 215.391 253.001 215.281 253.875C215.171 254.749 215.236 255.638 215.477 256.543C215.717 257.448 216.101 258.317 216.628 259.151C217.155 259.985 217.776 260.705 218.489 261.311C219.203 261.916 219.979 262.357 220.815 262.633C221.659 262.92 222.543 263.008 223.467 262.897C224.398 262.798 225.336 262.449 226.283 261.851C227.23 261.252 227.954 260.551 228.454 259.745C228.951 258.958 229.25 258.122 229.353 257.237C229.464 256.363 229.398 255.474 229.158 254.569C228.917 253.664 228.534 252.795 228.006 251.961Z" fill="#FFB763"/>
</g>
<defs>
<filter id="filter0_d_120_9260" x="31.8359" y="39.5439" width="254.729" height="245.305" filterUnits="userSpaceOnUse" color-interpolation-filters="sRGB">
<feFlood flood-opacity="0" result="BackgroundImageFix"/>
<feColorMatrix in="SourceAlpha" type="matrix" values="0 0 0 0 0 0 0 0 0 0 0 0 0 0 0 0 0 0 127 0" result="hardAlpha"/>
<feOffset dy="4"/>
<feGaussianBlur stdDeviation="2"/>
<feComposite in2="hardAlpha" operator="out"/>
<feColorMatrix type="matrix" values="0 0 0 0 0 0 0 0 0 0 0 0 0 0 0 0 0 0 0.25 0"/>
<feBlend mode="normal" in2="BackgroundImageFix" result="effect1_dropShadow_120_9260"/>
<feBlend mode="normal" in="SourceGraphic" in2="effect1_dropShadow_120_9260" result="shape"/>
</filter>
</defs>
</svg>
